<svg width="162" height="96" viewBox="0 0 162 96" fill="none" xmlns="http://www.w3.org/2000/svg">
<circle cx="114" cy="48" r="45" stroke="url(#paint0_linear_335_331)" stroke-width="6"/>
<path d="M74.5134 31.304V65H66.3054V44.792L58.7694 65H52.1454L44.5614 44.744V65H36.3534V31.304H46.0494L55.5054 54.632L64.8654 31.304H74.5134ZM101.392 59.048H88.8159L86.7999 65H78.2079L90.3999 31.304H99.9039L112.096 65H103.408L101.392 59.048ZM99.2799 52.712L95.1039 40.376L90.9759 52.712H99.2799ZM145.951 65H137.743L124.015 44.216V65H115.807V31.304H124.015L137.743 52.184V31.304H145.951V65Z" fill="#191825"/>
<path d="M74.5134 31.304H75.5134V30.304H74.5134V31.304ZM74.5134 65V66H75.5134V65H74.5134ZM66.3054 65H65.3054V66H66.3054V65ZM66.3054 44.792H67.3054L65.3685 44.4426L66.3054 44.792ZM58.7694 65V66H59.4638L59.7064 65.3494L58.7694 65ZM52.1454 65L51.2089 65.3506L51.4521 66H52.1454V65ZM44.5614 44.744L45.498 44.3934L43.5614 44.744H44.5614ZM44.5614 65V66H45.5614V65H44.5614ZM36.3534 65H35.3534V66H36.3534V65ZM36.3534 31.304V30.304H35.3534V31.304H36.3534ZM46.0494 31.304L46.9762 30.9283L46.7231 30.304H46.0494V31.304ZM55.5054 54.632L54.5787 55.0077L55.5102 57.3056L56.4335 55.0044L55.5054 54.632ZM64.8654 31.304V30.304H64.1892L63.9374 30.9316L64.8654 31.304ZM73.5134 31.304V65H75.5134V31.304H73.5134ZM74.5134 64H66.3054V66H74.5134V64ZM67.3054 65V44.792H65.3054V65H67.3054ZM65.3685 44.4426L57.8325 64.6506L59.7064 65.3494L67.2424 45.1414L65.3685 44.4426ZM58.7694 64H52.1454V66H58.7694V64ZM53.082 64.6494L45.498 44.3934L43.6249 45.0946L51.2089 65.3506L53.082 64.6494ZM43.5614 44.744V65H45.5614V44.744H43.5614ZM44.5614 64H36.3534V66H44.5614V64ZM37.3534 65V31.304H35.3534V65H37.3534ZM36.3534 32.304H46.0494V30.304H36.3534V32.304ZM45.1227 31.6797L54.5787 55.0077L56.4322 54.2563L46.9762 30.9283L45.1227 31.6797ZM56.4335 55.0044L65.7935 31.6764L63.9374 30.9316L54.5774 54.2596L56.4335 55.0044ZM64.8654 32.304H74.5134V30.304H64.8654V32.304ZM101.392 59.048L102.339 58.7272L102.109 58.048H101.392V59.048ZM88.8159 59.048V58.048H88.0988L87.8688 58.7272L88.8159 59.048ZM86.7999 65V66H87.517L87.7471 65.3208L86.7999 65ZM78.2079 65L77.2676 64.6598L76.7827 66H78.2079V65ZM90.3999 31.304V30.304H89.6983L89.4596 30.9638L90.3999 31.304ZM99.9039 31.304L100.844 30.9638L100.606 30.304H99.9039V31.304ZM112.096 65V66H113.521L113.036 64.6598L112.096 65ZM103.408 65L102.461 65.3208L102.691 66H103.408V65ZM99.2799 52.712V53.712H100.674L100.227 52.3914L99.2799 52.712ZM95.1039 40.376L96.0511 40.0554L95.0985 37.2411L94.1556 40.0587L95.1039 40.376ZM90.9759 52.712L90.0276 52.3947L89.5868 53.712H90.9759V52.712ZM101.392 58.048H88.8159V60.048H101.392V58.048ZM87.8688 58.7272L85.8528 64.6792L87.7471 65.3208L89.7631 59.3688L87.8688 58.7272ZM86.7999 64H78.2079V66H86.7999V64ZM79.1483 65.3402L91.3403 31.6442L89.4596 30.9638L77.2676 64.6598L79.1483 65.3402ZM90.3999 32.304H99.9039V30.304H90.3999V32.304ZM98.9636 31.6442L111.156 65.3402L113.036 64.6598L100.844 30.9638L98.9636 31.6442ZM112.096 64H103.408V66H112.096V64ZM104.355 64.6792L102.339 58.7272L100.445 59.3688L102.461 65.3208L104.355 64.6792ZM100.227 52.3914L96.0511 40.0554L94.1567 40.6966L98.3327 53.0326L100.227 52.3914ZM94.1556 40.0587L90.0276 52.3947L91.9243 53.0293L96.0523 40.6933L94.1556 40.0587ZM90.9759 53.712H99.2799V51.712H90.9759V53.712ZM145.951 65V66H146.951V65H145.951ZM137.743 65L136.908 65.5511L137.205 66H137.743V65ZM124.015 44.216L124.849 43.6649L123.015 40.8876V44.216H124.015ZM124.015 65V66H125.015V65H124.015ZM115.807 65H114.807V66H115.807V65ZM115.807 31.304V30.304H114.807V31.304H115.807ZM124.015 31.304L124.85 30.7546L124.554 30.304H124.015V31.304ZM137.743 52.184L136.907 52.7334L138.743 55.5252V52.184H137.743ZM137.743 31.304V30.304H136.743V31.304H137.743ZM145.951 31.304H146.951V30.304H145.951V31.304ZM145.951 64H137.743V66H145.951V64ZM138.577 64.4489L124.849 43.6649L123.18 44.7671L136.908 65.5511L138.577 64.4489ZM123.015 44.216V65H125.015V44.216H123.015ZM124.015 64H115.807V66H124.015V64ZM116.807 65V31.304H114.807V65H116.807ZM115.807 32.304H124.015V30.304H115.807V32.304ZM123.179 31.8534L136.907 52.7334L138.578 51.6346L124.85 30.7546L123.179 31.8534ZM138.743 52.184V31.304H136.743V52.184H138.743ZM137.743 32.304H145.951V30.304H137.743V32.304ZM144.951 31.304V65H146.951V31.304H144.951Z" fill="#191825"/>
<path d="M28.912 25.072V70H17.968V25.072H28.912Z" fill="#191825"/>
<path d="M28.912 25.072H29.912V24.072H28.912V25.072ZM28.912 70V71H29.912V70H28.912ZM17.968 70H16.968V71H17.968V70ZM17.968 25.072V24.072H16.968V25.072H17.968ZM27.912 25.072V70H29.912V25.072H27.912ZM28.912 69H17.968V71H28.912V69ZM18.968 70V25.072H16.968V70H18.968ZM17.968 26.072H28.912V24.072H17.968V26.072Z" fill="#191825"/>
<path d="M4 14.5C2.067 14.5 0.5 16.067 0.5 18C0.5 19.933 2.067 21.5 4 21.5L4 14.5ZM4 21.5L24 21.5V14.5L4 14.5L4 21.5Z" fill="#191825"/>
<path d="M43 80.5C44.933 80.5 46.5 78.933 46.5 77C46.5 75.067 44.933 73.5 43 73.5V80.5ZM23 80.5H43V73.5H23V80.5Z" fill="#191825"/>
<defs>
<linearGradient id="paint0_linear_335_331" x1="114" y1="0" x2="114" y2="96" gradientUnits="userSpaceOnUse">
<stop stop-color="#4E31AA"/>
<stop offset="0.494625" stop-color="#FFBF00"/>
<stop offset="1" stop-color="#3795BD"/>
</linearGradient>
</defs>
</svg>
